<svg xmlns="http://www.w3.org/2000/svg" version="1.1" xmlns:xlink="http://www.w3.org/1999/xlink" xmlns:svgjs="http://svgjs.dev/svgjs" width="2000" height="1500" viewBox="0 0 2000 1500"><rect width="2000" height="1500" fill="#ffffff"></rect><g transform="matrix(0.75,0,0,0.75,249.090909090909,282.7536437246963)"><svg viewBox="0 0 396 247" data-background-color="#ffffff" preserveAspectRatio="xMidYMid meet" height="1247" width="2000" xmlns="http://www.w3.org/2000/svg" xmlns:xlink="http://www.w3.org/1999/xlink"><g id="tight-bounds" transform="matrix(1,0,0,1,0.2400000000000091,-0.09999999999999432)"><svg viewBox="0 0 395.52 247.2" height="247.2" width="395.52"><g><svg></svg></g><g><svg viewBox="0 0 395.52 247.2" height="247.2" width="395.52"><g transform="matrix(1,0,0,1,75.54432000000001,89.9714716981132)"><svg viewBox="0 0 244.43135999999996 67.25705660377358" height="67.25705660377358" width="244.43135999999996"><g><svg viewBox="0 0 244.43135999999996 67.25705660377358" height="67.25705660377358" width="244.43135999999996"><g><svg viewBox="0 0 244.43136 67.25705660377359" height="67.25705660377358" width="244.43135999999996"><g><svg viewBox="0 0 244.43136 67.25705660377359" height="67.25705660377359" width="244.43136"><g id="textblocktransform"><svg viewBox="0 0 244.43136 67.25705660377359" height="67.25705660377359" width="244.43136" id="textblock"><g><svg viewBox="0 0 244.43136 67.25705660377359" height="67.25705660377359" width="244.43136"><g transform="matrix(1,0,0,1,0,0)"><svg width="244.43136" viewBox="2.2 -34.3 158.99 43.75" height="67.25705660377359" data-palette-color="#000000"><path d="M26.85-26.45L26.85-26.45Q26.85-25.5 26.3-24.73 25.75-23.95 25.05-23.55L25.05-23.55Q23.8-24.45 22.18-25.15 20.55-25.85 18.2-25.85L18.2-25.85Q15.4-25.85 13.33-24.6 11.25-23.35 10.08-20.98 8.9-18.6 8.9-15.15L8.9-15.15Q8.9-9.9 11.5-7.23 14.1-4.55 18.5-4.55L18.5-4.55Q20.8-4.55 22.48-5.2 24.15-5.85 25.45-6.65L25.45-6.65Q26.15-6.2 26.6-5.45 27.05-4.7 27.05-3.65L27.05-3.65Q27.05-2.85 26.6-2.13 26.15-1.4 25.1-0.85L25.1-0.85Q24.1-0.25 22.28 0.28 20.45 0.8 17.75 0.8L17.75 0.8Q13.4 0.8 9.88-0.95 6.35-2.7 4.28-6.23 2.2-9.75 2.2-15.15L2.2-15.15Q2.2-20.35 4.28-23.93 6.35-27.5 9.8-29.33 13.25-31.15 17.4-31.15L17.4-31.15Q20.3-31.15 22.43-30.5 24.55-29.85 25.7-28.78 26.85-27.7 26.85-26.45ZM54.2-14.95L54.2-10.1 47.85-10.1 47.85-14.65Q47.85-17.15 46.52-18.28 45.2-19.4 43.15-19.4L43.15-19.4Q41.4-19.4 40-18.75 38.6-18.1 37.65-17.25L37.65-17.25 37.25-22.35Q38.45-23.1 40.22-23.78 42-24.45 44.25-24.45L44.25-24.45Q48.8-24.45 51.5-22.08 54.2-19.7 54.2-14.95L54.2-14.95ZM32.2-2.6L32.2-13.2 38.55-13.2 38.55-0.05Q38.15 0.05 37.37 0.2 36.6 0.35 35.7 0.35L35.7 0.35Q33.9 0.35 33.05-0.3 32.2-0.95 32.2-2.6L32.2-2.6ZM47.85-2.6L47.85-13.2 54.2-13.15 54.2-0.05Q53.8 0.05 53.02 0.2 52.25 0.35 51.35 0.35L51.35 0.35Q49.55 0.35 48.7-0.3 47.85-0.95 47.85-2.6L47.85-2.6ZM38.55-29.95L38.55-9.95 32.2-9.95 32.2-32.5Q32.6-32.65 33.4-32.77 34.2-32.9 35.1-32.9L35.1-32.9Q36.9-32.9 37.72-32.27 38.55-31.65 38.55-29.95L38.55-29.95ZM69.9 0.75L69.9 0.75Q64.95 0.75 62.05-1.2 59.15-3.15 59.15-6.95L59.15-6.95Q59.15-10.3 61.27-12.1 63.4-13.9 67.45-14.3L67.45-14.3 74.3-15 74.3-15.85Q74.3-17.8 72.9-18.68 71.5-19.55 69.05-19.55L69.05-19.55Q67.1-19.55 65.25-19.05 63.4-18.55 61.95-17.9L61.95-17.9Q61.4-18.3 61.02-19 60.65-19.7 60.65-20.45L60.65-20.45Q60.65-22.35 62.65-23.2L62.65-23.2Q64.05-23.8 65.92-24.13 67.8-24.45 69.7-24.45L69.7-24.45Q74.6-24.45 77.52-22.35 80.45-20.25 80.45-15.8L80.45-15.8 80.45-4.25Q80.45-3.05 79.87-2.35 79.3-1.65 78.35-1.1L78.35-1.1Q76.95-0.3 74.8 0.23 72.65 0.75 69.9 0.75ZM69.9-4.05L69.9-4.05Q71.35-4.05 72.55-4.35 73.75-4.65 74.3-5L74.3-5 74.3-10.55 69.45-10.1Q67.5-9.95 66.42-9.22 65.35-8.5 65.35-7.1L65.35-7.1Q65.35-5.7 66.45-4.88 67.55-4.05 69.9-4.05ZM86.74-6.95L86.74-13.2 92.99-13.2 92.99-7.35Q92.99-5.75 93.99-5.05 94.99-4.35 96.69-4.35L96.69-4.35Q97.49-4.35 98.42-4.58 99.34-4.8 99.99-5.1L99.99-5.1Q100.39-4.7 100.67-4.1 100.94-3.5 100.94-2.75L100.94-2.75Q100.94-1.25 99.59-0.28 98.24 0.7 95.24 0.7L95.24 0.7Q91.29 0.7 89.02-1.07 86.74-2.85 86.74-6.95L86.74-6.95ZM98.79-18.25L90.54-18.25 90.54-23.2 100.34-23.2Q100.59-22.85 100.79-22.2 100.99-21.55 100.99-20.75L100.99-20.75Q100.99-19.45 100.42-18.85 99.84-18.25 98.79-18.25L98.79-18.25ZM92.99-27.35L92.99-11.85 86.74-11.85 86.74-29.9Q87.14-30 87.92-30.15 88.69-30.3 89.59-30.3L89.59-30.3Q91.34-30.3 92.17-29.65 92.99-29 92.99-27.35L92.99-27.35ZM105.64-30.75L105.64-30.75Q105.64-32.25 106.67-33.27 107.69-34.3 109.29-34.3L109.29-34.3Q110.89-34.3 111.92-33.27 112.94-32.25 112.94-30.75L112.94-30.75Q112.94-29.25 111.92-28.23 110.89-27.2 109.29-27.2L109.29-27.2Q107.69-27.2 106.67-28.23 105.64-29.25 105.64-30.75ZM106.14-2.6L106.14-13.2 112.44-13.2 112.44-0.05Q112.04 0.05 111.27 0.2 110.49 0.35 109.59 0.35L109.59 0.35Q107.79 0.35 106.97-0.3 106.14-0.95 106.14-2.6L106.14-2.6ZM112.44-20.95L112.44-9.95 106.14-9.95 106.14-23.5Q106.54-23.6 107.32-23.75 108.09-23.9 108.99-23.9L108.99-23.9Q110.79-23.9 111.62-23.28 112.44-22.65 112.44-20.95L112.44-20.95ZM132.64-17.15L124.19-17.15 124.19-22.1 134.19-22.1Q134.44-21.75 134.64-21.1 134.84-20.45 134.84-19.7L134.84-19.7Q134.84-18.4 134.24-17.78 133.64-17.15 132.64-17.15L132.64-17.15ZM125.19-24.45L125.19-24.45 125.19-17.95 119.09-17.95 119.09-24.7Q119.09-27.9 120.39-29.88 121.69-31.85 123.96-32.8 126.24-33.75 129.19-33.75L129.19-33.75Q132.49-33.75 134.16-32.88 135.84-32 135.84-30.25L135.84-30.25Q135.84-29.45 135.51-28.83 135.19-28.2 134.74-27.8L134.74-27.8Q133.84-28.15 132.64-28.4 131.44-28.65 130.14-28.65L130.14-28.65Q127.59-28.65 126.39-27.68 125.19-26.7 125.19-24.45ZM119.09-2.6L119.09-19.65 125.44-19.65 125.44-0.05Q125.04 0.05 124.26 0.2 123.49 0.35 122.59 0.35L122.59 0.35Q120.79 0.35 119.94-0.3 119.09-0.95 119.09-2.6L119.09-2.6ZM143.99-5.7L143.99-5.7Q143.19-7.35 142.16-9.83 141.14-12.3 140.03-15.53 138.94-18.75 137.84-22.75L137.84-22.75Q138.34-23.35 139.24-23.78 140.14-24.2 141.19-24.2L141.19-24.2Q142.49-24.2 143.36-23.6 144.24-23 144.69-21.45L144.69-21.45Q145.89-17.65 147.21-13.88 148.53-10.1 149.99-6.2L149.99-6.2 150.19-6.2Q151.09-8.4 152.06-11.33 153.03-14.25 153.89-17.43 154.74-20.6 155.28-23.5L155.28-23.5Q155.89-23.8 156.56-24 157.24-24.2 157.99-24.2L157.99-24.2Q159.34-24.2 160.26-23.6 161.19-23 161.19-21.65L161.19-21.65Q161.19-20.45 160.76-18.45 160.34-16.45 159.61-14.03 158.89-11.6 157.94-9.05 156.99-6.5 155.89-4.08 154.78-1.65 153.69 0.3L153.69 0.3Q151.14 4.85 148.99 7.15 146.84 9.45 144.78 9.45L144.78 9.45Q143.19 9.45 142.19 8.53 141.19 7.6 140.99 6.15L140.99 6.15Q142.03 5.25 143.26 3.95 144.49 2.65 145.61 1.15 146.74-0.35 147.53-1.7L147.53-1.7Q146.69-1.95 145.84-2.75 144.99-3.55 143.99-5.7Z" opacity="1" transform="matrix(1,0,0,1,0,0)" fill="#000000" class="wordmark-text-0" data-fill-palette-color="primary" id="text-0"></path></svg></g></svg></g></svg></g></svg></g></svg></g></svg></g></svg></g><g><path d="M0 123.6c0-68.262 55.338-123.6 123.6-123.6 53.679 0 99.365 34.219 116.436 82.033h-3.226c-16.934-46.107-61.231-79-113.21-79-66.588 0-120.567 53.98-120.567 120.567 0 66.588 53.98 120.567 120.567 120.567 51.979 0 96.276-32.893 113.21-79h3.226c-17.071 47.814-62.758 82.033-116.436 82.033-68.262 0-123.6-55.338-123.6-123.6z" fill="#000000" stroke="transparent" data-fill-palette-color="tertiary"></path></g></svg></g><defs></defs></svg><rect width="395.52" height="247.2" fill="none" stroke="none" visibility="hidden"></rect></g></svg></g></svg>